<svg width="198" height="37" viewBox="0 0 198 37" fill="none" xmlns="http://www.w3.org/2000/svg">
<g clip-path="url(#clip0_111_3244)">
<path d="M198 22.5426C196.346 22.5328 194.704 22.523 193.05 22.523C190.744 22.523 188.426 22.523 186.12 22.523C185.941 22.523 185.763 22.523 185.555 22.523C185.615 24.0304 185.893 25.4106 186.823 26.5754C187.863 27.8772 189.327 28.1318 190.882 27.9948C192.803 27.8186 194.129 26.8103 194.812 25.0289C194.911 24.7743 195.03 24.6765 195.307 24.6863C196.099 24.7059 196.891 24.6961 197.674 24.6961C197.782 26.9571 194.96 29.7272 192 30.2656C187.139 31.1466 183.585 28.5135 182.684 24.4318C182.665 24.5101 182.635 24.5394 182.645 24.5786C182.872 27.0257 181.061 29.326 178.437 29.9328C176.329 30.4125 174.211 30.4223 172.132 29.786C169.944 29.1204 168.409 26.9278 168.459 24.6177C169.359 24.6177 170.26 24.6177 171.181 24.6177C171.241 24.8821 171.289 25.1561 171.349 25.4204C171.586 26.4384 172.18 27.1725 173.161 27.5248C174.904 28.1513 176.645 28.1513 178.369 27.3976C178.596 27.2997 178.804 27.1627 178.992 27.0061C180.25 25.9784 179.992 24.099 178.458 23.5802C176.942 23.0809 175.368 22.7677 173.834 22.3468C173.023 22.1217 172.211 21.9064 171.439 21.5833C168.706 20.4186 168.032 17.4919 169.934 15.2111C170.647 14.3497 171.567 13.7821 172.636 13.4786C174.626 12.9108 176.616 12.9304 178.576 13.5667C180.595 14.2323 181.991 15.9746 182.061 17.8344C182.061 17.9127 182.061 17.991 182.061 18.1085C181.16 18.1085 180.279 18.1085 179.378 18.1085C179.368 18.0987 179.328 18.0791 179.328 18.0497C179.091 16.5522 178.13 15.7887 176.686 15.5439C175.665 15.3677 174.646 15.3188 173.646 15.6027C173.26 15.7103 172.864 15.8865 172.547 16.1312C171.617 16.8458 171.577 18.1966 172.518 18.872C173.112 19.3027 173.844 19.5865 174.566 19.7921C176.23 20.2717 177.922 20.6339 179.586 21.0939C180.388 21.3093 181.15 21.6519 181.704 22.2979C182.032 22.6894 182.278 23.1495 182.556 23.5704C182.556 22.6013 182.486 21.6029 182.566 20.6241C182.734 18.5294 183.517 16.6696 185.05 15.172C187.931 12.3431 193.089 12.3627 195.95 15.2111C197.237 16.4934 197.703 18.128 197.901 19.8606C197.92 20.0662 197.971 20.2717 198 20.487C198 21.1723 198 21.8574 198 22.5426ZM195.001 20.2814C195.139 17.4331 193.12 15.4363 190.208 15.4754C187.407 15.5145 185.586 18.0595 185.675 20.2814C188.793 20.2814 191.901 20.2814 195.001 20.2814Z" fill="#333333"/>
<path d="M47.6484 29.6292C47.6484 21.7985 47.6484 14.0266 47.6484 6.21546C47.7573 6.19588 47.8662 6.15674 47.9751 6.15674C51.4401 6.16652 54.9051 6.14694 58.3602 6.21546C60.459 6.25461 62.5281 6.58742 64.518 7.2824C67.7949 8.42764 69.8739 10.63 70.6164 14.0168C71.1906 16.6303 71.2995 19.2536 70.5867 21.8573C69.4284 26.0858 65.9139 29.0321 61.4787 29.2671C57.5286 29.4824 53.5686 29.5118 49.6086 29.6194C48.9849 29.639 48.3414 29.6292 47.6484 29.6292ZM54.4992 25.0189C56.3901 24.9895 58.2414 25.0874 60.0531 24.6372C62.0133 24.1478 63.2904 22.9242 63.7953 20.9861C64.3002 19.0382 64.3299 17.0708 63.825 15.1326C63.3498 13.3218 62.3004 11.971 60.4491 11.3348C58.5186 10.6692 56.5188 10.8845 54.5091 10.8649C54.4992 15.6025 54.4992 20.2715 54.4992 25.0189Z" fill="#333333"/>
<path d="M111.692 19.1262C111.742 18.2843 111.742 17.5208 111.356 16.8258C110.969 16.1211 110.296 15.9351 109.544 15.9743C108.762 16.0134 108.197 16.4049 107.92 17.1292C107.772 17.5306 107.722 17.9711 107.623 18.4409C105.683 18.4409 103.713 18.4409 101.653 18.4409C101.713 18.0201 101.733 17.6089 101.822 17.2076C102.188 15.475 103.227 14.2417 104.891 13.6544C105.93 13.2824 107.049 13.0378 108.148 12.9203C110.108 12.7147 112.068 12.7539 113.959 13.4292C116.345 14.2809 117.593 16.0525 117.602 18.5682C117.622 21.4362 117.642 24.3042 117.692 27.1819C117.711 27.9748 117.849 28.7677 117.939 29.5997C117.583 29.5997 117.197 29.5997 116.801 29.5997C115.316 29.5997 113.831 29.5899 112.346 29.6095C111.989 29.6192 111.831 29.492 111.791 29.1591C111.742 28.7775 111.672 28.3859 111.612 27.965C111.554 27.9944 111.494 28.014 111.455 28.0531C109.554 30.2652 105.118 30.6275 102.584 28.9732C100.901 27.8769 100.505 26.252 100.604 24.4118C100.713 22.4248 101.762 21.1034 103.534 20.2909C105.336 19.4687 107.267 19.2338 109.217 19.1262C110.049 19.0968 110.851 19.1262 111.692 19.1262ZM111.752 22.1605C110.424 22.1409 109.187 22.1116 108.019 22.6206C106.999 23.061 106.564 23.9811 106.821 25.0774C107.029 25.9584 107.871 26.5652 108.9 26.5457C109.781 26.5262 110.494 26.164 110.989 25.4299C111.662 24.451 111.761 23.3449 111.752 22.1605Z" fill="#333333"/>
<path d="M87.4269 17.5606C87.516 21.5641 87.2289 25.5675 87.7932 29.6003C86.6745 29.6003 85.5162 29.6003 84.3678 29.6003C83.6253 29.6003 82.8828 29.5905 82.1403 29.6101C81.8532 29.6198 81.7145 29.5219 81.6749 29.2479C81.6155 28.827 81.5364 28.4158 81.4671 27.9754C81.1305 28.2592 80.8335 28.5627 80.4969 28.8074C78.3882 30.3246 74.7747 30.4421 72.5669 29.0619C71.2799 28.2592 70.5671 27.1043 70.5077 25.5871C70.4879 25.0193 70.478 24.4418 70.5473 23.8839C70.7354 22.445 71.5373 21.3878 72.7847 20.6537C74.3687 19.7238 76.1408 19.4008 77.9327 19.2442C78.9623 19.1561 80.0117 19.1561 81.0413 19.117C81.1997 19.1072 81.3581 19.0974 81.6353 19.0876C81.5462 18.4513 81.5265 17.8543 81.378 17.2768C81.1701 16.4643 80.6058 16.0629 79.7643 15.9945C78.8436 15.9259 78.1604 16.2783 77.8139 17.032C77.7149 17.2474 77.6456 17.4921 77.5961 17.727C77.5466 17.9521 77.5367 18.1773 77.507 18.4513C75.527 18.4513 73.547 18.4513 71.5076 18.4513C71.567 16.7286 72.1313 15.2702 73.5965 14.2521C74.636 13.5278 75.824 13.195 77.0615 13.0286C79.0217 12.7643 80.982 12.7153 82.9125 13.1852C85.0509 13.6942 86.6744 14.8198 87.2685 17.0516C87.318 17.2376 87.3873 17.4138 87.4467 17.5997L87.4269 17.5606ZM81.576 22.2101C80.487 22.0241 78.6455 22.2394 77.8139 22.6408C76.8536 23.1008 76.4181 23.9915 76.6557 25.0389C76.8636 25.9394 77.6754 26.5561 78.705 26.5463C79.6059 26.5365 80.3384 26.1744 80.8433 25.4305C81.4967 24.4516 81.6156 23.3455 81.576 22.2101Z" fill="#333333"/>
<path d="M133.125 18.7152C129.205 18.7152 125.363 18.7152 121.463 18.7152C121.463 22.3467 121.463 25.9488 121.463 29.5901C120.413 29.5901 119.433 29.5901 118.414 29.5901C118.414 21.8279 118.414 14.0658 118.414 6.27422C119.404 6.27422 120.394 6.27422 121.443 6.27422C121.443 9.46523 121.443 12.6563 121.443 15.8668C125.353 15.8668 129.195 15.8668 133.116 15.8668C133.116 12.6563 133.116 9.46523 133.116 6.25464C134.155 6.25464 135.145 6.25464 136.164 6.25464C136.164 14.0266 136.164 21.7789 136.164 29.5705C135.164 29.5705 134.174 29.5705 133.125 29.5705C133.125 25.9684 133.125 22.3663 133.125 18.7152Z" fill="#333333"/>
<path d="M87.4367 17.5804C87.4367 16.2492 87.4367 14.9082 87.4367 13.5183C88.496 13.5183 89.5256 13.5183 90.6344 13.5183C90.6344 12.7646 90.6443 12.0696 90.6344 11.3747C90.6344 11.1201 90.6839 10.9635 90.9512 10.8558C92.7926 10.1413 94.6241 9.39738 96.4556 8.67304C96.5249 8.64366 96.614 8.63388 96.7427 8.59473C96.7427 10.2196 96.7427 11.8053 96.7427 13.4595C98.0297 13.4595 99.2771 13.4595 100.554 13.4595C100.554 14.8299 100.554 16.1514 100.554 17.5217C99.3266 17.5217 98.0792 17.5217 96.7823 17.5217C96.7724 17.7468 96.7526 17.923 96.7526 18.0894C96.7526 20.1744 96.7526 22.2691 96.7526 24.3539C96.7526 25.1664 97.01 25.6069 97.8119 25.7733C98.5148 25.9201 99.2474 25.9103 99.9701 25.9593C100.148 25.9691 100.326 25.9397 100.524 25.9299C100.524 27.2416 100.524 28.514 100.524 29.8355C99.7127 29.8747 98.891 29.9725 98.0792 29.9333C96.6041 29.8551 95.1191 29.7473 93.6539 29.5614C93.0995 29.4929 92.5649 29.1992 92.0699 28.9154C91.1789 28.4064 90.6938 27.6037 90.6641 26.5857C90.6245 25.3916 90.6344 24.2071 90.6344 23.013C90.6344 21.3784 90.6344 19.7534 90.6344 18.1188C90.6344 17.9426 90.6344 17.7664 90.6344 17.5511C89.5256 17.5511 88.4762 17.5511 87.4268 17.5511C87.4268 17.5608 87.4367 17.5804 87.4367 17.5804Z" fill="#333333"/>
<path d="M153.331 21.1428C153.302 23.2374 152.974 25.0484 152.044 26.7222C150.975 28.6602 149.371 29.8642 147.183 30.3144C145.648 30.6277 144.105 30.6962 142.569 30.334C139.599 29.6391 137.798 27.7205 137.045 24.8624C136.482 22.7383 136.55 20.5947 137.194 18.4901C138.243 15.074 141.026 12.9891 144.639 12.8716C145.856 12.8325 147.054 12.9499 148.193 13.3708C151.242 14.5063 152.895 16.7087 153.242 19.8899C153.291 20.3695 153.312 20.8589 153.331 21.1428ZM150.212 21.3777C150.163 20.8393 150.144 20.3009 150.074 19.7724C149.717 17.11 148.222 15.583 145.668 15.3481C143.847 15.1817 142.144 15.5242 141.114 17.1883C139.442 19.8997 139.322 22.7676 140.609 25.665C141.144 26.8788 142.104 27.7205 143.441 27.9653C144.272 28.1121 145.153 28.161 145.995 28.0729C147.589 27.9163 148.678 27.0452 149.311 25.5769C149.896 24.2163 150.183 22.8362 150.212 21.3777Z" fill="#333333"/>
<path d="M168.102 29.5804C167.172 29.5804 166.291 29.5804 165.35 29.5804C165.35 28.8561 165.35 28.1513 165.35 27.3682C165.004 27.75 164.746 28.073 164.439 28.3667C163.063 29.649 161.37 30.0992 159.528 30.0405C158.934 30.0209 158.34 29.9524 157.767 29.8154C155.568 29.3064 154.302 27.8772 154.054 25.665C154.005 25.1757 153.975 24.6863 153.975 24.1968C153.965 20.8199 153.975 17.4429 153.975 14.0659C153.975 13.8701 153.975 13.6841 153.975 13.4688C154.995 13.4688 155.964 13.4688 157.014 13.4688C157.014 13.6547 157.014 13.8407 157.014 14.0365C157.014 17.2667 157.014 20.4968 157.014 23.727C157.014 23.7466 157.014 23.7564 157.014 23.776C157.014 27.1529 159.549 28.6897 162.647 27.1725C164.202 26.4188 164.786 25.0289 165.033 23.4529C165.132 22.8069 165.162 22.151 165.171 21.505C165.192 19.0285 165.182 16.5424 165.182 14.0659C165.182 13.8701 165.182 13.6841 165.182 13.4785C166.192 13.4785 167.142 13.4785 168.122 13.4785C168.102 18.8426 168.102 24.187 168.102 29.5804Z" fill="#333333"/>
<path d="M21.7804 0C22.711 0.0978836 23.6515 0.185978 24.5722 0.303439C27.4432 0.685186 30.1855 1.46826 32.6704 2.98545C36.6898 5.43254 38.8975 9.0738 39.7786 13.5765C40.1746 15.5831 40.2439 17.6093 40.1548 19.7333C39.9568 19.5963 39.8182 19.4985 39.6796 19.3907C36.5116 16.9436 33.3337 14.4868 30.1558 12.0593C29.9281 11.8831 29.6014 11.7656 29.3143 11.7656C23.1466 11.7461 16.9789 11.7461 10.8112 11.7656C10.5439 11.7656 10.2271 11.8733 10.0093 12.0299C6.66306 14.477 3.33666 16.9338 0.0102539 19.3907C0.0102539 18.6762 0.0102539 17.9519 0.0102539 17.2373C0.0399539 17.0807 0.0795539 16.9241 0.099354 16.7576C0.277554 15.5145 0.366654 14.2616 0.624054 13.0381C1.40616 9.35767 3.10896 6.18625 6.17796 3.84682C8.93016 1.74233 12.1279 0.763492 15.5236 0.313228C16.4542 0.185978 17.3848 0.0978836 18.3154 0C19.4737 0 20.6221 0 21.7804 0Z" fill="#005FA9"/>
<path d="M18.4143 36.9997C17.4837 36.9019 16.5531 36.8137 15.6225 36.6865C11.8308 36.1677 8.31633 34.9735 5.38593 32.4286C4.99983 32.0958 4.65333 31.7238 4.28703 31.3714C4.14843 31.2344 4.02963 31.0778 3.86133 30.8918C4.14843 30.6764 4.41573 30.4709 4.68303 30.2751C9.65283 26.6045 14.6226 22.9436 19.5825 19.2632C19.9191 19.0087 20.127 19.0185 20.4537 19.273C25.4829 23.1002 30.5319 26.908 35.571 30.7254C35.7492 30.8624 35.9373 30.9994 36.2244 31.2246C35.4126 31.9293 34.6899 32.6634 33.8682 33.2801C31.3635 35.1595 28.4727 36.109 25.4037 36.5886C24.3939 36.7452 23.3742 36.804 22.3545 36.9117C22.1961 36.9312 22.0377 36.9703 21.8793 36.9997C20.721 36.9997 19.5726 36.9997 18.4143 36.9997Z" fill="#005FA9"/>
<path d="M38.2933 28.0041C37.6894 28.9632 37.1152 29.8737 36.4915 30.872C31.6999 26.34 26.9776 21.8765 22.2256 17.3836C22.3939 17.2564 22.5325 17.1487 22.6909 17.0215C27.8785 20.6627 33.0463 24.3041 38.2933 28.0041Z" fill="#005FA9"/>
<path d="M2.34632 28.719C2.23742 28.5036 2.14832 28.347 2.04932 28.1611C2.97002 27.4465 3.88082 26.7417 4.78172 26.0369C8.69222 22.9928 12.6126 19.9486 16.5132 16.8947C16.8102 16.6597 16.9983 16.6401 17.3052 16.8849C18.018 17.4624 18.7605 18.0007 19.5426 18.5978C13.8006 21.9846 8.09822 25.3322 2.34632 28.719Z" fill="#005FA9"/>
<path d="M38.5114 27.5644C33.8683 23.5022 29.3341 19.5281 24.7603 15.5345C24.9286 15.4073 25.0672 15.3093 25.2157 15.1919C27.3046 16.5035 29.3737 17.8054 31.4527 19.1073C34.0069 20.7125 36.5611 22.3276 39.1351 23.9231C39.4816 24.1385 39.5707 24.344 39.442 24.7159C39.1153 25.6262 38.8381 26.5366 38.5114 27.5644Z" fill="#005FA9"/>
<path d="M13.8996 14.3105C14.7708 14.9663 15.6321 15.6222 16.533 16.3073C11.3553 19.4592 6.22712 22.5915 1.06921 25.7237C0.881113 25.4008 0.792013 25.156 1.13852 24.8722C5.31632 21.4168 9.47432 17.9518 13.6422 14.4965C13.7214 14.428 13.8006 14.379 13.8996 14.3105Z" fill="#005FA9"/>
<path d="M0.188477 22.4542C0.267677 22.2389 0.297377 21.9648 0.445877 21.8277C3.84157 18.5878 7.23727 15.3674 10.6429 12.147C10.6924 12.108 10.7419 12.0688 10.8409 12.01C11.7121 12.6659 12.5833 13.3217 13.4941 14.0166C9.07867 16.8847 4.72267 19.7232 0.356777 22.5521C0.307277 22.5227 0.247877 22.4835 0.188477 22.4542Z" fill="#005FA9"/>
<path d="M39.7093 23.7176C35.5513 20.2916 31.5022 16.9537 27.4531 13.6159C27.6907 13.2831 27.9085 13.2537 28.255 13.4495C32.0764 15.6715 35.8978 17.8836 39.7291 20.086C40.036 20.2622 40.135 20.4482 40.0954 20.7811C39.9568 21.7208 39.8479 22.6604 39.7093 23.7176Z" fill="#005FA9"/>
</g>
<defs>
<clipPath id="clip0_111_3244">
<rect width="198" height="37" fill="white"/>
</clipPath>
</defs>
</svg>
