<svg width="34" height="31" viewBox="0 0 34 31" fill="none" xmlns="http://www.w3.org/2000/svg">
<path d="M18.3974 0C19.1835 0.0820106 19.9779 0.15582 20.7556 0.254233C23.1807 0.574074 25.4971 1.23016 27.5961 2.50133C30.9912 4.55158 32.856 7.60238 33.6003 11.3749C33.9348 13.0561 33.9933 14.7537 33.918 16.5333C33.7508 16.4185 33.6337 16.3365 33.5166 16.2463C30.8407 14.196 28.1563 12.1376 25.472 10.1037C25.2797 9.95611 25.0037 9.85763 24.7612 9.85763C19.5515 9.84131 14.3417 9.84131 9.13191 9.85763C8.90612 9.85763 8.63853 9.9479 8.45455 10.0791C5.62807 12.1294 2.81831 14.1878 0.00854492 16.2463C0.00854492 15.6476 0.00854492 15.0407 0.00854492 14.4421C0.033632 14.3109 0.0670816 14.1797 0.0838064 14.0402C0.234329 12.9987 0.30959 11.9489 0.527012 10.9239C1.18764 7.84021 2.62597 5.18307 5.21831 3.22302C7.54305 1.45979 10.2441 0.639682 13.1124 0.262434C13.8985 0.15582 14.6845 0.0820106 15.4706 0C16.449 0 17.419 0 18.3974 0Z" fill="#005FA9"/>
<path d="M15.5542 30.9998C14.7681 30.9178 13.9821 30.844 13.196 30.7374C9.99321 30.3027 7.02455 29.3022 4.54928 27.1699C4.22315 26.8911 3.93046 26.5795 3.62106 26.2841C3.50398 26.1694 3.40364 26.0382 3.26147 25.8823C3.50398 25.7019 3.72977 25.5297 3.95555 25.3656C8.15347 22.2903 12.3514 19.2231 16.541 16.1395C16.8253 15.9262 17.0009 15.9344 17.2768 16.1477C21.5249 19.3543 25.7897 22.5445 30.0462 25.7429C30.1967 25.8577 30.3556 25.9725 30.5981 26.1611C29.9124 26.7516 29.3019 27.3667 28.6079 27.8834C26.4922 29.458 24.0504 30.2535 21.458 30.6553C20.6051 30.7865 19.7437 30.8358 18.8824 30.926C18.7486 30.9424 18.6148 30.9752 18.481 30.9998C17.5026 30.9998 16.5326 30.9998 15.5542 30.9998Z" fill="#005FA9"/>
<path d="M32.346 23.4629C31.8359 24.2666 31.3508 25.0294 30.824 25.8658C26.7766 22.0688 22.7878 18.3291 18.7738 14.5648C18.916 14.4582 19.033 14.3679 19.1668 14.2613C23.5487 17.3121 27.9139 20.3629 32.346 23.4629Z" fill="#005FA9"/>
<path d="M1.98207 24.0618C1.89009 23.8813 1.81482 23.7501 1.7312 23.5943C2.5089 22.9957 3.27824 22.4051 4.03922 21.8147C7.34236 19.2642 10.6539 16.7136 13.9487 14.1549C14.1995 13.9581 14.3584 13.9417 14.6176 14.1467C15.2197 14.6306 15.8469 15.0816 16.5075 15.5818C11.6574 18.4194 6.84061 21.2242 1.98207 24.0618Z" fill="#005FA9"/>
<path d="M32.5299 23.0944C28.6079 19.691 24.778 16.3613 20.9146 13.0153C21.0567 12.9088 21.1738 12.8267 21.2992 12.7283C23.0637 13.8273 24.8114 14.918 26.5675 16.0088C28.725 17.3537 30.8825 18.7069 33.0567 20.0437C33.3494 20.2241 33.4247 20.3963 33.316 20.7079C33.04 21.4706 32.8059 22.2334 32.5299 23.0944Z" fill="#005FA9"/>
<path d="M11.741 11.9899C12.4769 12.5393 13.2044 13.0888 13.9654 13.6629C9.59185 16.3036 5.26012 18.9279 0.903311 21.5523C0.744426 21.2817 0.669164 21.0766 0.961851 20.8388C4.49078 17.9438 8.00298 15.0406 11.5236 12.1457C11.5905 12.0882 11.6574 12.0472 11.741 11.9899Z" fill="#005FA9"/>
<path d="M0.159058 18.8131C0.225957 18.6326 0.251044 18.403 0.37648 18.2882C3.24477 15.5737 6.11307 12.8755 8.98973 10.1773C9.03154 10.1446 9.07335 10.1118 9.15698 10.0625C9.89288 10.612 10.6288 11.1615 11.3981 11.7437C7.66847 14.1467 3.98903 16.5249 0.301218 18.8951C0.259406 18.8704 0.209232 18.8376 0.159058 18.8131Z" fill="#005FA9"/>
<path d="M33.5417 19.8714C30.0295 17.001 26.6093 14.2044 23.1891 11.4078C23.3898 11.129 23.5738 11.1044 23.8664 11.2684C27.0943 13.1301 30.3222 14.9835 33.5584 16.8287C33.8177 16.9763 33.9013 17.1322 33.8678 17.4111C33.7508 18.1984 33.6588 18.9857 33.5417 19.8714Z" fill="#005FA9"/>
</svg>
