<svg width="72" height="72" viewBox="0 0 72 72" fill="none" xmlns="http://www.w3.org/2000/svg">
<path d="M67.644 8.37809V45.8757L68.6284 47.2339L67.644 48.2129V68.0059C67.644 70.2067 65.8553 71.9982 63.656 71.9982H8.34736C6.14813 71.9982 4.35938 70.2067 4.35938 68.0059V48.2129L3.375 47.2339L4.35938 45.8757V8.37809C4.35938 6.1773 6.14813 4.38574 8.34736 4.38574H63.656C65.8554 4.38574 67.644 6.1773 67.644 8.37809Z" fill="#FFE8A7"/>
<path d="M67.6382 8.37809V68.0059C67.6382 70.2067 65.8495 71.9982 63.6503 71.9982H60.8379C63.0371 71.9982 64.8259 70.2067 64.8259 68.0059V8.37809C64.8259 6.1773 63.0371 4.38574 60.8379 4.38574H63.6503C65.8496 4.38574 67.6382 6.1773 67.6382 8.37809Z" fill="#FFE26F"/>
<path d="M67.644 8.37809V15.9859H4.35938V8.37809C4.35938 6.1773 6.14813 4.38574 8.34736 4.38574H63.656C65.8554 4.38574 67.644 6.1773 67.644 8.37809Z" fill="#F77A49"/>
<path d="M67.6382 8.37809V15.9859H64.8259V8.37809C64.8259 6.1773 63.0371 4.38574 60.8379 4.38574H63.6503C65.8496 4.38574 67.6382 6.1773 67.6382 8.37809Z" fill="#DE4F42"/>
<path d="M35.939 0.00219727C35.3563 0.00219727 34.8838 0.474416 34.8838 1.05688V9.70209C34.8838 10.2846 35.3563 10.7568 35.939 10.7568C36.5218 10.7568 36.9943 10.2846 36.9943 9.70209V1.05688C36.9943 0.474416 36.5218 0.00219727 35.939 0.00219727Z" fill="#FFE26F"/>
<path d="M51.9434 0.00878906C51.3609 0.00878906 50.8887 0.481008 50.8887 1.06348V9.70882C50.8887 10.2913 51.3609 10.7635 51.9434 10.7635C52.5258 10.7635 52.998 10.2913 52.998 9.70882V1.06348C52.998 0.480867 52.5258 0.00878906 51.9434 0.00878906Z" fill="#FFE26F"/>
<path d="M19.9336 0.0109863C19.3511 0.0109863 18.8789 0.483205 18.8789 1.06567V9.71088C18.8789 10.2933 19.3511 10.7656 19.9336 10.7656C20.5161 10.7656 20.9883 10.2933 20.9883 9.71088V1.06567C20.9883 0.483205 20.5161 0.0109863 19.9336 0.0109863Z" fill="#FFE26F"/>
<path d="M27.9404 0.0153809C27.358 0.0153809 26.8857 0.4876 26.8857 1.07007V9.71527C26.8857 10.2977 27.358 10.77 27.9404 10.77C28.5229 10.77 28.9951 10.2977 28.9951 9.71527V1.07007C28.9951 0.4876 28.5229 0.0153809 27.9404 0.0153809Z" fill="#FFE26F"/>
<path d="M11.9355 0.0175781C11.3531 0.0175781 10.8809 0.489797 10.8809 1.07227V9.71761C10.8809 10.3001 11.3531 10.7723 11.9355 10.7723C12.518 10.7723 12.9902 10.3001 12.9902 9.71761V1.07227C12.9902 0.489797 12.518 0.0175781 11.9355 0.0175781Z" fill="#FFE26F"/>
<path d="M59.959 0.0131836C59.3765 0.0131836 58.9043 0.485402 58.9043 1.06787V9.71321C58.9043 10.2957 59.3765 10.7679 59.959 10.7679C60.5415 10.7679 61.0137 10.2957 61.0137 9.71321V1.06787C61.0137 0.485402 60.5415 0.0131836 59.959 0.0131836Z" fill="#FFE26F"/>
<path d="M43.9453 0C43.3628 0 42.8906 0.472219 42.8906 1.05469V9.69989C42.8906 10.2824 43.3628 10.7546 43.9453 10.7546C44.5278 10.7546 45 10.2824 45 9.69989V1.05469C45 0.472219 44.5278 0 43.9453 0V0Z" fill="#FFE26F"/>
<path d="M30.8232 54.6504V64.4506C30.8232 64.8288 31.0243 65.1776 31.3519 65.366C31.681 65.5545 32.0831 65.5516 32.4093 65.3618L35.9441 63.2918L39.4775 65.3618C39.642 65.4574 39.8262 65.5052 40.0104 65.5052C40.1918 65.5052 40.3732 65.4588 40.5349 65.366C40.8625 65.1776 41.065 64.8288 41.065 64.4506V54.6743L30.8232 54.6504Z" fill="#F77A49"/>
<path d="M8.70996 53.4419V61.975C8.70996 62.3674 8.92794 62.7288 9.2781 62.9102C9.62687 63.0916 10.0488 63.0635 10.3708 62.8371L12.4282 61.3914L15.048 64.7636C15.2519 65.0252 15.5613 65.17 15.8805 65.17C15.9944 65.17 16.1098 65.1517 16.2223 65.1138C16.6484 64.9675 16.9352 64.5667 16.9352 64.1153V54.0536L8.70996 53.4419Z" fill="#FFBA4C"/>
<path d="M19.2305 54.5251L22.9175 66.8931C23.0511 67.3389 23.4589 67.6455 23.9244 67.6469H23.9286C24.3913 67.6469 24.8005 67.3445 24.9369 66.9015L28.6239 54.8767L19.2305 54.5251Z" fill="#997AB8"/>
<path d="M54.958 54.0621V64.1153C54.958 64.5667 55.2435 64.9675 55.6696 65.1138C55.7821 65.1517 55.8974 65.17 56.0113 65.17C56.3319 65.17 56.6413 65.0252 56.8452 64.7636L59.4649 61.3914L61.5221 62.8371C61.8441 63.0635 62.2646 63.0916 62.6147 62.9102C62.9635 62.7288 63.1829 62.3674 63.1829 61.975V53.4419L54.958 54.0621Z" fill="#FFBA4C"/>
<path d="M43.2686 54.8778L46.9556 66.9026C47.0906 67.3456 47.4998 67.6479 47.9639 67.6479H47.9681C48.4322 67.6465 48.8414 67.34 48.9736 66.8942L52.6325 54.6218L43.2686 54.8778Z" fill="#5BC196"/>
<path d="M71.9636 50.4105C71.6317 52.2344 69.1301 53.4255 63.854 54.2706C57.969 55.2128 48.5968 55.6909 36 55.6909C23.4032 55.6909 14.031 55.2128 8.14598 54.2706C2.86988 53.4255 0.368297 52.2344 0.0364224 50.4105C-0.192796 49.1547 0.660797 47.9383 2.57175 46.7936C3.22425 46.4026 3.88519 46.0862 4.35769 45.8767V48.2139C4.12284 48.3348 3.87675 48.4684 3.63488 48.6147C2.31441 49.4106 2.09503 49.9436 2.11191 50.0322C2.11331 50.0434 2.39597 51.2134 8.48053 52.188C14.2573 53.1133 23.5156 53.5815 35.9999 53.5815C48.4841 53.5815 57.7426 53.1133 63.5192 52.188C69.6037 51.2134 69.8864 50.0434 69.8878 50.0322C69.9047 49.9436 69.6853 49.4106 68.3648 48.6147C68.123 48.4684 67.8769 48.3348 67.642 48.2139V45.8767C68.1145 46.0862 68.7755 46.4026 69.4278 46.7936C71.3392 47.9383 72.1928 49.1547 71.9636 50.4105Z" fill="#98654C"/>
<path d="M35.7542 27.657H33.5832C33.0006 27.657 32.5283 28.1292 32.5283 28.7117V41.9272C32.5283 42.5097 33.0006 42.9819 33.5832 42.9819H35.7542C38.012 42.9819 39.8489 41.1452 39.8489 38.8876V31.7511C39.8488 29.4935 38.012 27.657 35.7542 27.657ZM37.7393 38.8876C37.7393 39.9821 36.8487 40.8725 35.7542 40.8725H34.6379V29.7664H35.7542C36.8487 29.7664 37.7393 30.6568 37.7393 31.7511V38.8876Z" fill="#FB963F"/>
<path d="M45.6187 27.657C43.6008 27.657 41.959 29.3007 41.959 31.3214V41.9272C41.959 42.5097 42.4312 42.9819 43.0137 42.9819C43.5961 42.9819 44.0684 42.5097 44.0684 41.9272V37.9436H47.1693V41.9272C47.1693 42.5097 47.6415 42.9819 48.224 42.9819C48.8064 42.9819 49.2787 42.5097 49.2787 41.9272V31.3214C49.2785 29.3007 47.6367 27.657 45.6187 27.657ZM44.0682 35.834V31.3212C44.0682 30.4639 44.7637 29.7662 45.6186 29.7662C46.4735 29.7662 47.169 30.4637 47.169 31.3212V35.834H44.0682Z" fill="#FB963F"/>
<path d="M57.6458 27.657C57.0634 27.657 56.5912 28.1292 56.5912 28.7117V35.6878C56.5912 36.5452 55.8956 37.2428 55.0408 37.2428C54.1858 37.2428 53.4902 36.5453 53.4902 35.6878V28.7117C53.4902 28.1292 53.018 27.657 52.4355 27.657C51.8531 27.657 51.3809 28.1292 51.3809 28.7117V35.6878C51.3809 37.3414 52.4805 38.7426 53.9861 39.1971V41.9272C53.9861 42.5097 54.4583 42.9819 55.0408 42.9819C55.6232 42.9819 56.0955 42.5097 56.0955 41.9272V39.1971C57.601 38.7426 58.7005 37.3414 58.7005 35.6878V28.7117C58.7005 28.1292 58.2283 27.657 57.6458 27.657Z" fill="#FB963F"/>
<path d="M29.4504 33.4106C29.4603 33.7256 29.3281 34.0363 29.0778 34.2459L25.35 37.4043L26.5734 42.2038C26.6803 42.6229 26.5214 43.0631 26.1726 43.3176C25.987 43.4512 25.7704 43.5187 25.5525 43.5187C25.357 43.5187 25.1615 43.4653 24.9885 43.3556L20.8051 40.7132L16.6216 43.3556C16.256 43.5862 15.7877 43.5721 15.4376 43.3176C15.0888 43.0631 14.9285 42.6229 15.0354 42.2038L16.2602 37.4043L12.5366 34.2459C12.209 33.9674 12.0824 33.5188 12.2174 33.111C12.3524 32.7032 12.7208 32.4178 13.1498 32.3896L17.9941 32.0704L19.8251 27.4748C19.9854 27.074 20.3735 26.811 20.8052 26.811C21.237 26.811 21.6251 27.074 21.7854 27.4748L23.6149 32.0704L28.4663 32.3896C28.8953 32.4178 29.2637 32.7032 29.3987 33.111C29.4322 33.2095 29.449 33.3093 29.4504 33.4106Z" fill="#FFBA4C"/>
<path d="M40.9914 48.2682L44.4601 50.2753C44.6264 50.3715 44.8079 50.4173 44.9872 50.4173C45.3513 50.4173 45.7055 50.2285 45.901 49.8907C46.1926 49.3866 46.0205 48.7415 45.5164 48.4497L42.0478 46.4427C41.5439 46.1512 40.8985 46.3231 40.6067 46.8272C40.3152 47.3313 40.4873 47.9766 40.9914 48.2682Z" fill="#FFC54B"/>
<path d="M21.3161 45.8364L18.0393 48.3767C17.5791 48.7335 17.4952 49.3959 17.852 49.8561C18.0598 50.1242 18.3713 50.2645 18.6861 50.2645C18.9118 50.2645 19.1393 50.1924 19.3315 50.0433L22.6083 47.5031C23.0685 47.1463 23.1525 46.4839 22.7956 46.0237C22.439 45.5635 21.7765 45.4795 21.3161 45.8364Z" fill="#54C9EB"/>
<path d="M30.5906 24.3942C30.8824 23.8901 30.7103 23.2449 30.206 22.9531L26.7373 20.9457C26.2335 20.654 25.5881 20.8261 25.2963 21.3303C25.0046 21.8344 25.1767 22.4796 25.681 22.7714L29.1498 24.7788C29.3161 24.8752 29.4977 24.9209 29.677 24.9209C30.0409 24.9209 30.3951 24.732 30.5906 24.3942Z" fill="#FFC54B"/>
<path d="M53.1779 22.8433C53.6383 22.4864 53.7222 21.824 53.3653 21.3638C53.0083 20.9036 52.3459 20.8196 51.8854 21.1765L48.6078 23.7169C48.1474 24.0737 48.0635 24.7361 48.4204 25.1963C48.6283 25.4645 48.9398 25.6048 49.2548 25.6048C49.4805 25.6048 49.7081 25.5325 49.9003 25.3836L53.1779 22.8433Z" fill="#54C9EB"/>
<path d="M40.8244 23.2218C41.4064 23.2218 41.8782 22.7498 41.8782 22.1677C41.8782 21.5855 41.4064 21.1135 40.8244 21.1135C40.2423 21.1135 39.7705 21.5855 39.7705 22.1677C39.7704 22.7498 40.2423 23.2218 40.8244 23.2218Z" fill="#F77A49"/>
<path d="M18.4905 23.9848C18.4905 23.4026 18.0187 22.9307 17.4367 22.9307C16.8546 22.9307 16.3828 23.4026 16.3828 23.9848C16.3828 24.567 16.8546 25.0389 17.4367 25.0389C18.0187 25.0389 18.4905 24.567 18.4905 23.9848Z" fill="#F77A49"/>
<path d="M30.5324 50.1075C31.1144 50.1075 31.5862 49.6356 31.5862 49.0534C31.5862 48.4712 31.1144 47.9993 30.5324 47.9993C29.9503 47.9993 29.4785 48.4712 29.4785 49.0534C29.4785 49.6356 29.9503 50.1075 30.5324 50.1075Z" fill="#F77A49"/>
<path d="M52.8574 47.2363C52.8574 47.8184 53.3292 48.2904 53.9113 48.2904C54.4933 48.2904 54.9651 47.8184 54.9651 47.2363C54.9651 46.6541 54.4933 46.1821 53.9113 46.1821C53.3292 46.1821 52.8574 46.6541 52.8574 47.2363Z" fill="#F77A49"/>
</svg>
