<svg width="178" height="171" viewBox="0 0 178 171" fill="none" xmlns="http://www.w3.org/2000/svg">
<g clip-path="url(#clip0_491_6456)">
<path d="M134.536 90.9095C140.894 87.1934 149.366 86.4168 155.49 90.5061C147.844 92.8914 141.289 97.9026 136.984 104.653C135.334 107.262 133.77 110.336 130.838 111.309C129.014 111.915 126.978 111.542 125.246 110.709C123.514 109.875 122.029 108.617 120.565 107.372L120.098 107.264C123.635 100.808 128.177 94.6255 134.536 90.9095Z" fill="#F0F0F0"/>
<path d="M155.422 90.6448C149.343 90.1839 143.273 91.649 138.074 94.8319C136.943 95.4973 135.924 96.3367 135.054 97.3192C134.238 98.3037 133.7 99.4887 133.497 100.751C133.284 101.924 133.202 103.149 132.708 104.25C132.446 104.81 132.069 105.308 131.601 105.712C131.133 106.116 130.586 106.417 129.993 106.594C128.529 107.075 126.98 107.001 125.467 106.877C123.787 106.738 122.045 106.568 120.436 107.193C120.241 107.268 120.135 106.962 120.33 106.886C123.128 105.799 126.129 107.027 129.003 106.51C130.344 106.268 131.62 105.622 132.282 104.381C132.86 103.297 132.946 102.034 133.151 100.844C133.331 99.6101 133.811 98.4386 134.548 97.4322C135.365 96.4086 136.35 95.5313 137.462 94.838C139.939 93.2373 142.653 92.0358 145.503 91.2775C148.752 90.394 152.128 90.0723 155.485 90.3265C155.693 90.3423 155.629 90.6605 155.422 90.6448L155.422 90.6448Z" fill="#FAFAFA"/>
<path d="M139.688 93.7088C139.272 92.7647 139.206 91.7035 139.5 90.7149C139.795 89.7262 140.432 88.8744 141.297 88.3116C141.472 88.1983 141.657 88.4654 141.481 88.5789C140.675 89.1015 140.081 89.895 139.809 90.8162C139.536 91.7374 139.602 92.7256 139.995 93.6024C140.08 93.7931 139.773 93.8983 139.688 93.7088H139.688Z" fill="#FAFAFA"/>
<path d="M133.527 100.142C135.487 100.923 137.67 100.938 139.64 100.182C139.835 100.107 139.941 100.414 139.746 100.489C137.695 101.271 135.423 101.251 133.385 100.434C133.191 100.356 133.334 100.064 133.527 100.142Z" fill="#FAFAFA"/>
<path d="M148.691 90.8197C148.776 91.2186 148.959 91.5901 149.223 91.901C149.487 92.2119 149.824 92.4523 150.204 92.6009C150.399 92.6764 150.256 92.9678 150.062 92.8928C149.643 92.7267 149.271 92.4607 148.979 92.1179C148.686 91.775 148.482 91.3659 148.385 90.9261C148.372 90.8854 148.375 90.8414 148.394 90.8031C148.412 90.7648 148.445 90.7349 148.485 90.7197C148.525 90.7058 148.57 90.7085 148.609 90.7273C148.647 90.746 148.677 90.7792 148.691 90.8197Z" fill="#FAFAFA"/>
<path d="M158.029 115.298C157.906 115.255 157.783 115.211 157.657 115.169C155.999 114.59 154.295 114.146 152.565 113.842C152.431 113.817 152.296 113.793 152.162 113.771C147.985 113.084 143.716 113.178 139.573 114.048C137.925 114.396 136.306 114.868 134.729 115.462C132.552 116.281 130.257 117.343 128.002 117.394C127.767 117.402 127.532 117.396 127.297 117.374L120.002 107.842C119.996 107.812 119.988 107.784 119.983 107.754L119.674 107.386C119.753 107.35 119.836 107.314 119.915 107.278C119.961 107.257 120.008 107.238 120.054 107.216C120.085 107.203 120.116 107.19 120.144 107.176C120.154 107.171 120.164 107.167 120.173 107.164C120.2 107.15 120.227 107.14 120.252 107.128C120.715 106.925 121.18 106.726 121.647 106.53C121.649 106.528 121.649 106.528 121.653 106.529C125.217 105.042 128.936 103.84 132.72 103.241C132.833 103.223 132.949 103.203 133.067 103.189C134.774 102.928 136.499 102.807 138.226 102.827C139.171 102.841 140.115 102.903 141.055 103.013C143.481 103.3 145.847 103.967 148.066 104.989C152.489 107.027 156.21 110.457 157.903 114.954C157.946 115.069 157.988 115.182 158.029 115.298Z" fill="#F0F0F0"/>
<path d="M157.891 115.37C153.314 111.344 147.585 108.862 141.517 108.276C140.213 108.126 138.893 108.183 137.607 108.444C136.362 108.739 135.219 109.362 134.296 110.248C133.419 111.056 132.616 111.985 131.558 112.566C131.012 112.856 130.41 113.027 129.793 113.068C129.177 113.109 128.558 113.019 127.978 112.805C126.52 112.308 125.327 111.317 124.194 110.307C122.936 109.186 121.647 108.001 119.987 107.532C119.786 107.476 119.886 107.167 120.087 107.224C122.976 108.039 124.633 110.825 127.239 112.142C128.455 112.756 129.863 113.007 131.138 112.415C132.254 111.897 133.083 110.94 133.963 110.114C134.851 109.237 135.94 108.59 137.135 108.23C138.404 107.904 139.719 107.797 141.024 107.912C143.966 108.124 146.857 108.798 149.59 109.907C152.716 111.156 155.605 112.931 158.133 115.154C158.289 115.291 158.046 115.507 157.891 115.37H157.891Z" fill="#FAFAFA"/>
<path d="M143.483 108.349C143.72 107.345 144.306 106.458 145.137 105.846C145.968 105.234 146.989 104.937 148.019 105.008C148.061 105.011 148.1 105.031 148.128 105.062C148.156 105.094 148.171 105.135 148.169 105.177C148.167 105.219 148.149 105.258 148.119 105.287C148.088 105.316 148.047 105.332 148.005 105.332C147.046 105.264 146.095 105.541 145.322 106.112C144.55 106.684 144.007 107.513 143.792 108.449C143.745 108.652 143.437 108.552 143.483 108.349V108.349Z" fill="#FAFAFA"/>
<path d="M134.688 109.779C135.782 111.582 137.516 112.907 139.544 113.489C139.745 113.547 139.645 113.855 139.444 113.798C137.335 113.188 135.533 111.806 134.399 109.927C134.291 109.748 134.58 109.601 134.688 109.779Z" fill="#FAFAFA"/>
<path d="M152.411 111.459C152.239 111.829 152.16 112.235 152.184 112.642C152.207 113.049 152.332 113.444 152.546 113.791C152.656 113.969 152.366 114.116 152.257 113.939C152.022 113.555 151.885 113.118 151.858 112.669C151.832 112.219 151.915 111.77 152.102 111.36C152.117 111.32 152.146 111.286 152.184 111.267C152.222 111.248 152.265 111.243 152.306 111.255C152.347 111.268 152.381 111.297 152.401 111.336C152.42 111.374 152.424 111.418 152.411 111.459Z" fill="#FAFAFA"/>
<path d="M10.7363 149.076C11.4822 141.754 15.8506 134.457 22.7668 131.926C20.1859 139.503 20.3704 147.749 23.2875 155.204C24.4229 158.075 25.985 161.15 25.0427 164.09C24.4564 165.919 22.9542 167.342 21.2597 168.249C19.5651 169.156 17.6722 169.612 15.8029 170.059L15.44 170.373C12.3082 163.711 9.99033 156.399 10.7363 149.076Z" fill="#F0F0F0"/>
<path d="M22.839 132.062C18.8818 136.697 16.4865 142.46 15.9934 148.533C15.8641 149.838 15.9414 151.156 16.2226 152.437C16.5369 153.677 17.1776 154.809 18.078 155.718C18.9006 156.581 19.8421 157.37 20.4402 158.418C20.7384 158.959 20.9188 159.557 20.9695 160.173C21.0201 160.789 20.94 161.408 20.7343 161.991C20.2595 163.456 19.2862 164.663 18.2934 165.811C17.191 167.085 16.0258 168.391 15.5823 170.058C15.5286 170.259 15.2182 170.164 15.2718 169.963C16.0435 167.063 18.8053 165.365 20.082 162.74C20.6777 161.516 20.9077 160.104 20.2954 158.839C19.76 157.733 18.7899 156.919 17.9494 156.052C17.058 155.179 16.3941 154.101 16.0156 152.912C15.6701 151.649 15.542 150.337 15.6371 149.031C15.8042 146.088 16.4333 143.189 17.5014 140.441C18.703 137.298 20.4338 134.384 22.6188 131.824C22.7541 131.666 22.9734 131.905 22.839 132.062Z" fill="#FAFAFA"/>
<path d="M16.0368 146.568C15.0285 146.347 14.1316 145.775 13.5064 144.954C12.8811 144.134 12.5682 143.117 12.6234 142.087C12.6262 142.045 12.6451 142.006 12.6761 141.978C12.7072 141.95 12.748 141.934 12.79 141.936C12.8321 141.937 12.872 141.954 12.9015 141.984C12.9309 142.014 12.9476 142.054 12.948 142.096C12.8948 143.055 13.1864 144.002 13.7702 144.765C14.354 145.528 15.1916 146.058 16.1317 146.258C16.336 146.302 16.2399 146.612 16.0368 146.568Z" fill="#FAFAFA"/>
<path d="M17.6041 155.334C19.3913 154.213 20.69 152.46 21.2413 150.424C21.2957 150.223 21.6061 150.318 21.5517 150.519C20.9741 152.636 19.6189 154.458 17.7565 155.621C17.5789 155.731 17.4275 155.444 17.6041 155.334H17.6041Z" fill="#FAFAFA"/>
<path d="M19.0113 137.599C19.3836 137.765 19.7915 137.837 20.1984 137.807C20.6053 137.778 20.9984 137.647 21.3425 137.428C21.5186 137.315 21.6699 137.602 21.4949 137.715C21.1136 137.955 20.6793 138.098 20.2298 138.132C19.7803 138.166 19.3294 138.089 18.9164 137.909C18.876 137.895 18.8424 137.866 18.8224 137.829C18.8024 137.791 18.7974 137.747 18.8086 137.706C18.8213 137.665 18.8498 137.631 18.8877 137.611C18.9257 137.591 18.9701 137.586 19.0113 137.599Z" fill="#FAFAFA"/>
<path d="M44.3013 144.496C44.1934 144.57 44.0854 144.644 43.9774 144.72C42.5312 145.717 41.1684 146.83 39.9026 148.048C39.8032 148.14 39.7039 148.236 39.6074 148.331C36.589 151.297 34.1478 154.798 32.4081 158.655C31.7172 160.19 31.1443 161.776 30.6941 163.398C30.0726 165.638 29.5771 168.117 28.2892 169.967C28.157 170.161 28.0128 170.347 27.8576 170.524L15.8519 170.791C15.8243 170.778 15.7966 170.768 15.7689 170.755L15.29 170.787C15.3074 170.702 15.3273 170.614 15.3446 170.529C15.3545 170.479 15.367 170.43 15.3769 170.38C15.3843 170.347 15.3919 170.314 15.3967 170.284C15.3991 170.273 15.4017 170.262 15.4042 170.254C15.409 170.223 15.4167 170.196 15.4216 170.168C15.5311 169.676 15.6444 169.183 15.7613 168.69C15.7612 168.687 15.7612 168.687 15.7638 168.685C16.6641 164.932 17.8858 161.221 19.6322 157.813C19.6848 157.711 19.7371 157.606 19.7952 157.503C20.591 155.972 21.5106 154.508 22.5451 153.126C23.1139 152.371 23.7206 151.645 24.3629 150.952C26.0258 149.163 27.96 147.647 30.0944 146.459C34.3498 144.091 39.3155 143.109 43.9483 144.395C44.0668 144.428 44.1828 144.461 44.3013 144.496Z" fill="#F0F0F0"/>
<path d="M44.2775 144.649C38.3256 145.969 32.9411 149.129 28.8888 153.681C27.999 154.645 27.267 155.744 26.7195 156.936C26.2238 158.115 26.0529 159.405 26.2247 160.672C26.3611 161.856 26.6379 163.052 26.4839 164.249C26.3959 164.861 26.1795 165.447 25.849 165.969C25.5185 166.491 25.0812 166.938 24.566 167.279C23.3042 168.163 21.7997 168.541 20.3157 168.86C18.6679 169.214 16.9507 169.556 15.5926 170.62C15.4281 170.749 15.2375 170.486 15.4019 170.357C17.7647 168.507 20.9933 168.812 23.5938 167.485C24.8072 166.865 25.8412 165.877 26.1145 164.498C26.3534 163.293 26.069 162.06 25.9205 160.861C25.7348 159.628 25.8542 158.368 26.2682 157.191C26.7531 155.975 27.4416 154.85 28.3042 153.864C30.2108 151.615 32.4595 149.679 34.9679 148.127C37.8209 146.341 40.9586 145.055 44.2454 144.326C44.4489 144.281 44.4797 144.604 44.2775 144.649H44.2775Z" fill="#FAFAFA"/>
<path d="M30.1068 152.139C29.4349 151.355 29.0634 150.359 29.0586 149.328C29.0539 148.296 29.4163 147.296 30.081 146.507C30.2161 146.348 30.47 146.55 30.3348 146.71C29.7144 147.443 29.377 148.375 29.3833 149.335C29.3897 150.296 29.7395 151.222 30.3695 151.948C30.5062 152.106 30.2428 152.296 30.1068 152.139Z" fill="#FAFAFA"/>
<path d="M26.0763 160.08C28.1788 160.26 30.2719 159.642 31.9384 158.348C32.1034 158.22 32.2939 158.483 32.1291 158.611C30.3924 159.954 28.2129 160.593 26.0254 160.401C25.817 160.382 25.869 160.062 26.0763 160.08Z" fill="#FAFAFA"/>
<path d="M37.8854 146.766C38.0822 147.123 38.3647 147.426 38.7075 147.647C39.0503 147.868 39.4426 148.001 39.8494 148.033C40.058 148.049 40.0058 148.369 39.7985 148.353C39.3493 148.316 38.9161 148.169 38.5369 147.925C38.1576 147.682 37.8437 147.349 37.6227 146.957C37.5987 146.922 37.5891 146.879 37.5958 146.837C37.6025 146.794 37.625 146.756 37.6586 146.73C37.6936 146.705 37.737 146.695 37.7794 146.702C37.8219 146.708 37.8599 146.732 37.8854 146.766Z" fill="#FAFAFA"/>
<path d="M103.265 20.1272L38.6367 13.7745C37.888 13.6968 37.1645 13.4608 36.5141 13.082C35.8432 12.6918 35.2485 12.1835 34.7587 11.5816C33.7059 10.295 33.1283 8.68539 33.1231 7.02336C33.1224 6.61854 33.1585 6.2145 33.2307 5.81618C33.2999 5.43463 33.4057 5.06063 33.5466 4.69934C33.683 4.34977 33.8549 4.01508 34.0595 3.70052C34.2608 3.39145 34.495 3.10504 34.7579 2.84626C35.0137 2.59417 35.2971 2.3718 35.6029 2.18339C36.1981 1.81667 36.871 1.59434 37.5676 1.5342C37.9237 1.50369 38.2821 1.51287 38.6361 1.56158L103.265 10.298C103.758 10.3712 104.226 10.5667 104.624 10.8667C105.06 11.1938 105.433 11.5976 105.724 12.0583C106.049 12.5657 106.298 13.118 106.462 13.6975C106.641 14.3217 106.732 14.9678 106.732 15.6171C106.732 15.9335 106.71 16.2496 106.666 16.5629C106.624 16.8614 106.559 17.1563 106.472 17.445C106.39 17.7199 106.284 17.9874 106.157 18.2445C106.035 18.4902 105.891 18.7237 105.725 18.9419C105.57 19.1465 105.393 19.3335 105.198 19.4996C105.016 19.6536 104.816 19.7842 104.602 19.8884C104.187 20.0907 103.724 20.1733 103.265 20.1269L103.265 20.1272Z" fill="#E4E4E4"/>
<path d="M74.5397 17.3038L38.6367 13.7745C37.888 13.6968 37.1645 13.4608 36.5141 13.082C35.8432 12.6918 35.2485 12.1835 34.7587 11.5816C33.7059 10.295 33.1283 8.68539 33.1231 7.02336C33.1224 6.61854 33.1585 6.2145 33.2307 5.81618C33.2999 5.43463 33.4057 5.06063 33.5466 4.69934C33.683 4.34977 33.8549 4.01508 34.0595 3.70052C34.2608 3.39145 34.495 3.10504 34.7579 2.84626C35.0137 2.59417 35.2971 2.3718 35.6029 2.18339C36.1981 1.81667 36.871 1.59434 37.5676 1.5342C37.9237 1.50369 38.2821 1.51287 38.6361 1.56158L74.5389 6.4158L74.5397 17.3038Z" fill="#0B3FD1"/>
<path d="M74.4479 18.1057C74.2819 18.0884 74.1223 18.0321 73.9821 17.9414C73.8343 17.8461 73.7056 17.7242 73.6024 17.5819C73.4901 17.4281 73.4032 17.2574 73.3448 17.0762C73.282 16.8832 73.2501 16.6816 73.25 16.4787V6.93788C73.2488 6.74226 73.2808 6.54785 73.3446 6.3629C73.4009 6.19931 73.4884 6.04821 73.6024 5.91797C73.7061 5.79815 73.8365 5.70436 73.9832 5.64417C74.131 5.58559 74.2916 5.56671 74.449 5.58941C74.6153 5.61398 74.7737 5.67636 74.912 5.77177C75.0589 5.87333 75.1864 6.00037 75.2885 6.14687C75.3991 6.30345 75.4849 6.47615 75.5427 6.65888C75.6044 6.85158 75.6358 7.05265 75.6359 7.25495V16.7189C75.637 16.9144 75.6055 17.1087 75.5427 17.2939C75.487 17.4592 75.4008 17.6126 75.2885 17.7462C75.1858 17.8687 75.0567 17.9665 74.9109 18.0323C74.7655 18.0962 74.606 18.1215 74.4479 18.1057Z" fill="#3F3D56"/>
<path d="M17.0163 10.2741C16.9523 10.2676 16.8889 10.2567 16.8264 10.2415C16.7624 10.226 16.6996 10.2062 16.6382 10.1824C16.5751 10.1579 16.5136 10.1295 16.4541 10.0972C16.3925 10.0639 16.333 10.0267 16.276 9.98606C15.9311 9.7405 15.6856 9.37968 15.5839 8.9689C15.5502 8.83227 15.5331 8.69207 15.5332 8.55135V1.38708C15.5327 1.25049 15.5497 1.11439 15.5839 0.982127C15.616 0.857261 15.6653 0.737465 15.7305 0.626185C15.8583 0.408787 16.0484 0.234717 16.2763 0.126499C16.3908 0.0717623 16.5127 0.0342127 16.6382 0.0150632C16.7634 -0.00385101 16.8907 -0.00495955 17.0163 0.0117752C17.146 0.0291712 17.2729 0.0636046 17.3936 0.114179C17.5213 0.167726 17.642 0.236688 17.753 0.319529L23.4787 4.57029C23.5811 4.64638 23.6748 4.73341 23.7582 4.82985C23.9234 5.02078 24.0459 5.24484 24.1174 5.48697C24.1532 5.60839 24.1757 5.73334 24.1845 5.85961C24.1845 5.86968 24.1851 5.87974 24.1864 5.88973C24.1877 5.89973 24.1877 5.90985 24.1864 5.91985V5.98036C24.1869 6.11373 24.1707 6.24664 24.1382 6.376C24.1075 6.49793 24.0605 6.61517 23.9985 6.72455C23.9382 6.83058 23.863 6.9274 23.7752 7.01204C23.6873 7.09703 23.5874 7.16862 23.4787 7.22451L17.7525 10.138C17.6954 10.167 17.6364 10.1918 17.5758 10.2122C17.516 10.2324 17.4548 10.2482 17.3927 10.2596C17.3308 10.2709 17.2682 10.2778 17.2053 10.2801C17.1423 10.2825 17.0791 10.2805 17.0163 10.2741Z" fill="#CACACA"/>
<path d="M103.279 51.3227L38.6576 52.5406C37.9258 52.5541 37.2004 52.4024 36.5354 52.0968C35.8686 51.7883 35.2714 51.3478 34.78 50.802C34.2636 50.23 33.8585 49.567 33.5851 48.8467C32.9977 47.2929 32.9977 45.5782 33.5851 44.0243C33.8585 43.3039 34.2637 42.6407 34.78 42.0685C35.2714 41.5222 35.8686 41.0812 36.5354 40.7721C37.2003 40.466 37.9257 40.3139 38.6576 40.3269L103.279 41.4941C103.761 41.5063 104.23 41.6482 104.638 41.9048C105.073 42.1796 105.448 42.5405 105.738 42.9652C106.066 43.4401 106.314 43.9643 106.476 44.518C106.835 45.7511 106.835 47.0611 106.476 48.2942C106.314 48.8481 106.066 49.3726 105.738 49.8478C105.448 50.2736 105.073 50.6356 104.638 50.9115C104.23 51.1682 103.761 51.3103 103.279 51.3227Z" fill="#E4E4E4"/>
<path d="M63.9153 52.0648L38.6576 52.5406C37.9258 52.5542 37.2004 52.4025 36.5354 52.0968C35.8686 51.7883 35.2714 51.3478 34.78 50.802C34.2636 50.2301 33.8585 49.567 33.5851 48.8468C33.292 48.0768 33.1427 47.2596 33.1445 46.4357C33.1443 46.0267 33.1803 45.6185 33.2522 45.2159C33.3225 44.8227 33.4282 44.4366 33.5681 44.0624C33.7058 43.6943 33.8775 43.3398 34.081 43.0036C34.2831 42.6699 34.5168 42.3564 34.7791 42.0675C35.0344 41.7854 35.3175 41.5297 35.6241 41.3044C35.9188 41.0881 36.2357 40.9037 36.5693 40.7541C37.2254 40.4595 37.9385 40.3137 38.6576 40.3269L63.9153 40.7831V52.0648Z" fill="#0B3FD1"/>
<path d="M64.2103 52.7784C64.0377 52.7819 63.867 52.7434 63.7127 52.6661C63.5556 52.5866 63.4168 52.4753 63.305 52.3392C63.1843 52.1927 63.0908 52.0258 63.0291 51.8464C62.9615 51.6514 62.9272 51.4465 62.9277 51.2402V41.3669C62.9271 41.1604 62.9614 40.9553 63.0291 40.7602C63.0908 40.5807 63.1843 40.4138 63.305 40.2673C63.4169 40.1317 63.5557 40.0207 63.7127 39.9415C63.867 39.8643 64.0377 39.8258 64.2103 39.8293C64.3838 39.8335 64.5538 39.8791 64.7062 39.9623C64.8623 40.0481 64.9997 40.1641 65.1103 40.3037C65.2291 40.4531 65.3211 40.6219 65.3824 40.8026C65.4488 40.9975 65.4825 41.2021 65.4821 41.408V51.1991C65.4825 51.405 65.4488 51.6096 65.3824 51.8045C65.3211 51.9853 65.2291 52.1542 65.1103 52.3036C64.9998 52.4434 64.8624 52.5597 64.7062 52.6456C64.5538 52.7287 64.3838 52.7743 64.2103 52.7784Z" fill="#3F3D56"/>
<path d="M17.0385 51.5729C16.9108 51.5747 16.7836 51.5588 16.6604 51.5255C16.5976 51.5086 16.5361 51.4874 16.4762 51.462C16.415 51.4359 16.3556 51.4057 16.2984 51.3716C16.184 51.3037 16.0791 51.2209 15.9866 51.1252C15.8951 51.03 15.8166 50.9232 15.7529 50.8076C15.6884 50.6902 15.6391 50.5651 15.6064 50.4352C15.5724 50.3009 15.5554 50.163 15.5557 50.0245V42.8602C15.5554 42.7218 15.5725 42.5838 15.6064 42.4495C15.6392 42.3199 15.6884 42.1949 15.7529 42.0777C15.8809 41.8443 16.0694 41.6495 16.2987 41.514C16.4117 41.4459 16.5334 41.3937 16.6606 41.3587C16.9084 41.2917 17.17 41.2954 17.4157 41.3694C17.5422 41.4076 17.6631 41.4625 17.7749 41.5328L23.5012 45.1125L23.5217 45.1257L23.5423 45.1391L23.5625 45.1528L23.5825 45.1667C23.6745 45.2332 23.7584 45.31 23.8327 45.3956C23.9069 45.481 23.9712 45.5744 24.0245 45.6741C24.0782 45.7751 24.1208 45.8817 24.1513 45.992C24.1828 46.1053 24.2021 46.2217 24.2089 46.3391V46.4391C24.2091 46.5742 24.1929 46.7089 24.1606 46.8402C24.1294 46.9671 24.0824 47.0896 24.0209 47.2049C23.9603 47.3185 23.8853 47.4239 23.7979 47.5184C23.7095 47.6133 23.609 47.6962 23.499 47.7648L17.7749 51.3508C17.7183 51.3864 17.6593 51.4181 17.5985 51.4458C17.5391 51.4728 17.478 51.4958 17.4155 51.5145C17.354 51.533 17.2914 51.5471 17.2281 51.557C17.1653 51.5666 17.1019 51.5719 17.0385 51.5729Z" fill="#CACACA"/>
<path d="M103.265 82.4136L38.6368 91.1771C37.9348 91.2783 37.2188 91.2147 36.5456 90.9913C35.8725 90.768 35.2606 90.391 34.7586 89.8902C34.2391 89.374 33.8322 88.7558 33.5635 88.0747C33.2676 87.3236 33.1182 86.523 33.1232 85.7159C33.1285 84.0537 33.7061 82.4439 34.7588 81.1571C35.2486 80.5549 35.8433 80.0463 36.5143 79.6558C37.1645 79.2769 37.8881 79.0406 38.6368 78.9626L103.265 72.5847C103.733 72.5377 104.204 72.6247 104.624 72.8354C105.058 73.0584 105.434 73.378 105.725 73.7697C106.055 74.2115 106.304 74.708 106.462 75.2364C106.644 75.8384 106.735 76.4642 106.732 77.0931C106.732 77.7424 106.641 78.3885 106.462 79.0127C106.298 79.5923 106.049 80.1447 105.725 80.6522C105.433 81.113 105.06 81.517 104.624 81.8443C104.226 82.1445 103.759 82.3402 103.265 82.4136Z" fill="#E4E4E4"/>
<path d="M93.1032 83.7914L38.6368 91.1769C37.9348 91.2781 37.2188 91.2145 36.5456 90.9912C35.8724 90.7678 35.2606 90.3908 34.7586 89.8901C34.2391 89.3738 33.8321 88.7556 33.5635 88.0745C33.2677 87.3238 33.1183 86.5235 33.1232 85.7168C33.1233 85.3037 33.1593 84.8915 33.2308 84.4847C33.4448 83.2623 33.9708 82.1158 34.758 81.1561C35.0134 80.8446 35.2962 80.5566 35.603 80.2955C35.8962 80.0454 36.2126 79.8238 36.548 79.6337C36.8718 79.4504 37.2134 79.3004 37.5674 79.1858C37.9147 79.0737 38.2729 78.9988 38.636 78.9627L93.1032 73.5874V83.7914Z" fill="#0B3FD1"/>
<path d="M17.016 92.7341C16.9531 92.7424 16.8896 92.7463 16.8261 92.7459C16.7632 92.7454 16.7004 92.7405 16.6382 92.7311C16.5127 92.712 16.3907 92.6744 16.2763 92.6196C16.0482 92.5111 15.8581 92.3367 15.7305 92.1189C15.6653 92.0076 15.616 91.8878 15.5839 91.7629C15.5499 91.6312 15.5328 91.4957 15.5332 91.3596V84.1942C15.5332 84.0538 15.5502 83.9139 15.5839 83.7775C15.6858 83.3667 15.9314 83.0058 16.2763 82.7601C16.3882 82.6798 16.5098 82.6139 16.6382 82.5638C16.7596 82.5165 16.8867 82.4856 17.0163 82.472C17.1421 82.4589 17.2691 82.4637 17.3936 82.4863C17.5185 82.5091 17.6394 82.5499 17.7525 82.6076L23.4787 85.5189L23.4995 85.5296L23.5201 85.5408L23.5404 85.5523L23.5604 85.5641C23.6472 85.6167 23.7273 85.6798 23.7987 85.7519C23.8699 85.8238 23.9323 85.904 23.9845 85.9906C24.0378 86.0794 24.0809 86.1739 24.113 86.2724C24.1464 86.3753 24.1689 86.4815 24.1798 86.5892C24.1813 86.6034 24.1826 86.6177 24.1837 86.6319C24.1848 86.6461 24.1857 86.6605 24.1864 86.6751C24.1864 86.6896 24.187 86.7041 24.1881 86.7187C24.1892 86.7334 24.1892 86.7481 24.1881 86.7628C24.1881 86.8998 24.1719 87.0364 24.1398 87.1696C24.077 87.4345 23.9539 87.6813 23.7801 87.8908C23.6911 87.9965 23.59 88.0912 23.4787 88.1731L17.7525 92.4261C17.6959 92.4681 17.6369 92.5067 17.5758 92.5416C17.5167 92.5754 17.4556 92.6055 17.3927 92.6317C17.3317 92.6572 17.2691 92.6787 17.2053 92.696C17.1431 92.7129 17.0799 92.7256 17.016 92.7341Z" fill="#CACACA"/>
<path d="M92.7111 76.4617C93.1098 76.4043 93.5162 76.4349 93.9017 76.5515C94.2873 76.668 94.6425 76.8676 94.9425 77.1362C95.2425 77.4048 95.4799 77.7358 95.638 78.106C95.7961 78.4762 95.8711 78.8766 95.8576 79.2789L104.995 82.7936L100.855 85.7493L92.8129 81.9586C92.1381 81.8912 91.5115 81.5787 91.0519 81.0805C90.5922 80.5823 90.3314 79.9329 90.3188 79.2553C90.3063 78.5777 90.5429 77.9191 90.9838 77.4042C91.4247 76.8893 92.0393 76.554 92.7111 76.4617H92.7111Z" fill="#FFB6B6"/>
<path d="M127.405 74.7363L128.951 77.5449C128.577 79.3263 127.612 80.929 126.211 82.0926C123.845 84.0872 111.47 91.5162 111.47 91.5162L95.8477 83.6786L98.5806 80.0494L110.846 84.1571L117.765 77.6277L127.405 74.7363Z" fill="#3F3D56"/>
<path d="M128.824 118.777L127.209 119.081L136.95 170.742L138.565 170.437L128.824 118.777Z" fill="#CACACA"/>
<path d="M112.745 170.438L114.36 170.742L124.101 119.081L122.486 118.777L112.745 170.438Z" fill="#CACACA"/>
<path d="M124.53 121.211C131.264 121.211 136.722 119.433 136.722 117.241C136.722 115.048 131.264 113.271 124.53 113.271C117.797 113.271 112.338 115.048 112.338 117.241C112.338 119.433 117.797 121.211 124.53 121.211Z" fill="#CACACA"/>
<path d="M98.6346 167.488L95.2756 167.488L93.6777 154.541L98.6352 154.541L98.6346 167.488Z" fill="#FFB6B6"/>
<path d="M99.4909 170.742L88.6602 170.741V170.604C88.6602 169.487 89.1044 168.416 89.895 167.626C90.6856 166.836 91.7578 166.392 92.8758 166.392H92.8761L99.4911 166.392L99.4909 170.742Z" fill="#2F2E41"/>
<path d="M114.941 149.871L112.007 151.506L104.303 140.974L108.633 138.562L114.941 149.871Z" fill="#FFB6B6"/>
<path d="M117.274 152.296L107.814 157.566L107.747 157.447C107.203 156.471 107.069 155.319 107.374 154.244C107.68 153.169 108.4 152.26 109.377 151.716L109.377 151.716L115.155 148.497L117.274 152.296Z" fill="#2F2E41"/>
<path d="M134.019 107.534C134.019 107.534 135.648 112.577 125.655 118.954L112.786 131.77L99.4135 163.736L91.4746 160.179L103.683 127.613L110.822 115.121L111.03 108.342L112.786 103.564L125.526 99.0464L134.019 107.534Z" fill="#2F2E41"/>
<path d="M107.889 149.662L94.6066 129.649C93.9966 128.728 93.7266 127.624 93.8428 126.526C93.959 125.428 94.4543 124.404 95.2436 123.631L108.692 110.484L110.973 108.206H116.075L113.683 117.028L105.382 126.431L114.978 143.4L107.889 149.662Z" fill="#2F2E41"/>
<path d="M117.651 80.1151L121.653 74.391L130.799 73.6558C130.799 73.6558 138.661 81.0582 137.23 90.8053C135.8 100.552 134.43 110.135 134.43 110.135C134.43 110.135 120.183 100.005 112.785 103.564L117.651 80.1151Z" fill="#3F3D56"/>
<path d="M114.934 109.978C115.005 109.581 115.162 109.206 115.394 108.877C115.626 108.548 115.928 108.273 116.277 108.073C116.627 107.873 117.016 107.752 117.417 107.719C117.819 107.685 118.222 107.74 118.6 107.88L124.814 100.318L126.319 105.175L120.187 111.611C119.911 112.23 119.417 112.726 118.799 113.005C118.181 113.284 117.482 113.327 116.835 113.126C116.187 112.925 115.636 112.493 115.286 111.913C114.936 111.332 114.81 110.644 114.934 109.978Z" fill="#FFB6B6"/>
<path d="M122.756 109.486L120.02 105.536L127.791 95.181L123.787 86.608L124.079 76.4105L127.387 75.7998L127.428 75.8204C129.037 76.7456 130.28 78.1927 130.952 79.9215C131.777 81.9833 133.619 89.7233 134.644 94.1533C134.845 95.0118 134.823 95.9075 134.58 96.755C134.337 97.6026 133.88 98.3738 133.254 98.9952L122.756 109.486Z" fill="#3F3D56"/>
<path d="M129.733 69.3814C131.514 66.3874 130.529 62.5174 127.533 60.7377C124.537 58.9579 120.665 59.9423 118.884 62.9363C117.103 65.9303 118.088 69.8002 121.084 71.58C124.08 73.3598 127.952 72.3754 129.733 69.3814Z" fill="#FFB6B6"/>
<path d="M128.344 63.8942C128.277 64.8099 129.137 68.1867 129.137 68.1867C129.766 67.1278 128.777 70.6469 128.777 70.6469C139.114 63.4458 130.946 56.2112 127.751 56.8543C127.818 55.9385 125.212 56.3013 125.212 56.3013C124.219 54.7561 122.043 56.8073 122.043 56.8073L122.463 56.1013C120.773 56.5308 119.104 61.7489 119.104 61.7489C119.676 64.0001 128.411 62.9784 128.344 63.8942Z" fill="#2F2E41"/>
<path d="M92.8613 84.4767C92.7227 84.4966 92.5813 84.4776 92.4528 84.4219C92.3225 84.3636 92.2078 84.2752 92.1183 84.164C92.0169 84.0395 91.9398 83.8971 91.8908 83.7443C91.8349 83.5697 91.8072 83.3874 91.8086 83.2041V74.2609C91.8082 74.0713 91.8359 73.8827 91.8908 73.7013C91.9418 73.533 92.0185 73.3736 92.1183 73.2287C92.2078 73.0967 92.3214 72.9828 92.4531 72.8927C92.5746 72.8096 92.7148 72.7579 92.8613 72.7424C93.001 72.7287 93.1419 72.7536 93.2684 72.8144C93.3983 72.8782 93.5118 72.9707 93.6005 73.085C93.7 73.2123 93.7757 73.3565 93.8241 73.5107C93.8794 73.685 93.9072 73.8669 93.9063 74.0498V82.9254C93.9062 83.1145 93.8785 83.3025 93.8241 83.4836C93.7738 83.6532 93.6985 83.8144 93.6005 83.9617C93.5117 84.0966 93.3992 84.2144 93.2684 84.3094C93.1482 84.3972 93.0085 84.4546 92.8613 84.4767Z" fill="#3F3D56"/>
<path d="M177.674 171H0.326256C0.239899 171 0.157162 170.965 0.0961866 170.904C0.0352112 170.843 0.000976562 170.76 0.000976562 170.674C0.000976562 170.588 0.0352112 170.505 0.0961866 170.444C0.157162 170.383 0.239899 170.348 0.326256 170.348H177.674C177.76 170.348 177.843 170.382 177.904 170.444C177.966 170.505 178 170.588 178 170.674C178 170.761 177.966 170.844 177.904 170.905C177.843 170.966 177.76 171 177.674 171Z" fill="#CACACA"/>
</g>
<defs>
<clipPath id="clip0_491_6456">
<rect width="178" height="171" fill="white"/>
</clipPath>
</defs>
</svg>
